<svg width="24" height="24" viewBox="0 0 24 24" fill="none" xmlns="http://www.w3.org/2000/svg">
<path d="M4.85714 4.14286C4.46429 4.14286 4.14286 4.46429 4.14286 4.85714V19.1429C4.14286 19.5357 4.46429 19.8571 4.85714 19.8571H19.1429C19.5357 19.8571 19.8571 19.5357 19.8571 19.1429V4.85714C19.8571 4.46429 19.5357 4.14286 19.1429 4.14286H4.85714ZM2 4.85714C2 3.28125 3.28125 2 4.85714 2H19.1429C20.7188 2 22 3.28125 22 4.85714V19.1429C22 20.7188 20.7188 22 19.1429 22H4.85714C3.28125 22 2 20.7188 2 19.1429V4.85714Z" fill="#F1F1F1"/>
</svg>
