<svg width="24" height="24" viewBox="0 0 24 24" fill="none" xmlns="http://www.w3.org/2000/svg">
<path d="M4.85714 2C3.28125 2 2 3.28125 2 4.85714V19.1429C2 20.7188 3.28125 22 4.85714 22H19.1429C20.7188 22 22 20.7188 22 19.1429V4.85714C22 3.28125 20.7188 2 19.1429 2H4.85714ZM17.0446 9.90179L11.3304 15.6161C10.9107 16.0357 10.2321 16.0357 9.81696 15.6161L6.95982 12.7589C6.54018 12.3393 6.54018 11.6607 6.95982 11.2455C7.37946 10.8304 8.05804 10.8259 8.47321 11.2455L10.5714 13.3438L15.5268 8.38393C15.9464 7.96429 16.625 7.96429 17.0402 8.38393C17.4554 8.80357 17.4598 9.48214 17.0402 9.89732L17.0446 9.90179Z" fill="#456F2F"/>
</svg>
