<svg width="266" height="56" viewBox="0 0 266 56" fill="none" xmlns="http://www.w3.org/2000/svg">
<g clip-path="url(#clip0_38_131)">
<path d="M88.9 8.40991H92.43C93.85 8.40991 94.94 8.57991 95.7 8.91991C96.46 9.25991 97.06 9.77991 97.51 10.4699C97.96 11.1599 98.17 11.9399 98.17 12.7899C98.17 13.5899 97.98 14.3099 97.59 14.9599C97.2 15.6099 96.63 16.1399 95.88 16.5499C96.81 16.8699 97.52 17.2399 98.03 17.6699C98.54 18.0999 98.92 18.6099 99.2 19.2199C99.48 19.8199 99.62 20.4799 99.62 21.1899C99.62 22.6299 99.09 23.8399 98.04 24.8299C96.99 25.8199 95.58 26.3199 93.81 26.3199H88.89L88.91 8.40991H88.9ZM90.65 10.1599V15.8899H91.67C92.91 15.8899 93.83 15.7799 94.41 15.5499C94.99 15.3199 95.46 14.9499 95.8 14.4599C96.14 13.9599 96.31 13.4099 96.31 12.7999C96.31 11.9799 96.02 11.3399 95.45 10.8699C94.88 10.3999 93.96 10.1699 92.71 10.1699H90.64L90.65 10.1599ZM90.64 17.6999V24.5599H92.85C94.16 24.5599 95.12 24.4299 95.73 24.1799C96.34 23.9299 96.83 23.5299 97.2 22.9799C97.57 22.4299 97.76 21.8499 97.76 21.2199C97.76 20.4199 97.5 19.7299 96.98 19.1399C96.46 18.5499 95.75 18.1399 94.84 17.9199C94.23 17.7699 93.17 17.6999 91.66 17.6999H90.65H90.64Z" fill="#2E6B47"/>
<path d="M102.63 8.41992H106.2C108.19 8.41992 109.53 8.50992 110.24 8.66992C111.3 8.90992 112.17 9.43992 112.83 10.2399C113.49 11.0399 113.83 12.0299 113.82 13.1999C113.82 14.1699 113.59 15.0299 113.13 15.7699C112.67 16.5099 112.01 17.0699 111.16 17.4399C110.31 17.8099 109.13 18.0099 107.63 18.0099L114.06 26.3299H111.85L105.42 18.0099H104.41V26.3199H102.62L102.64 8.41992H102.63ZM104.42 10.1799V16.2599L107.5 16.2899C108.69 16.2899 109.58 16.1799 110.15 15.9499C110.72 15.7199 111.17 15.3599 111.49 14.8599C111.81 14.3599 111.97 13.7999 111.97 13.1899C111.97 12.5799 111.81 12.0399 111.49 11.5499C111.16 11.0599 110.74 10.7099 110.21 10.4999C109.68 10.2899 108.8 10.1799 107.58 10.1799H104.42Z" fill="#2E6B47"/>
<path d="M125.56 8C128.27 8 130.54 8.91 132.36 10.72C134.18 12.53 135.1 14.76 135.09 17.4C135.08 20.04 134.17 22.24 132.35 24.07C130.53 25.9 128.3 26.8 125.68 26.8C123.03 26.8 120.79 25.89 118.96 24.07C117.13 22.25 116.22 20.05 116.23 17.47C116.23 15.75 116.65 14.16 117.48 12.69C118.31 11.22 119.45 10.07 120.89 9.24C122.33 8.41 123.88 8 125.55 8H125.56ZM125.64 9.74C124.31 9.74 123.06 10.08 121.87 10.77C120.68 11.46 119.76 12.39 119.09 13.56C118.42 14.73 118.09 16.03 118.09 17.47C118.09 19.6 118.82 21.39 120.3 22.86C121.77 24.33 123.55 25.06 125.63 25.06C127.02 25.06 128.3 24.73 129.49 24.05C130.67 23.38 131.6 22.46 132.26 21.29C132.92 20.12 133.26 18.82 133.26 17.39C133.26 15.96 132.93 14.68 132.27 13.53C131.61 12.38 130.68 11.46 129.48 10.77C128.28 10.08 127 9.73 125.65 9.73L125.64 9.74Z" fill="#2E6B47"/>
<path d="M137.07 8.45996H138.91L142.55 21.37L147.7 8.47996H148.07L153.13 21.38L156.86 8.47996H158.68L153.52 26.38H153.19L147.89 12.83L142.46 26.37H142.13L137.07 8.45996Z" fill="#2E6B47"/>
<path d="M161.37 26.39L161.39 8.48999H161.78L173.68 22.23V8.49999H175.46L175.44 26.4H175.04L163.24 12.83V26.38H161.38L161.37 26.39Z" fill="#2E6B47"/>
<path d="M233.33 30.23H85V32.23H233.33V30.23Z" fill="#2E6B47"/>
<path d="M95.65 47.5601L96.7 48.1101C96.36 48.7901 95.96 49.3301 95.51 49.7501C95.06 50.1701 94.55 50.4801 93.99 50.7001C93.43 50.9201 92.79 51.0201 92.08 51.0201C90.5 51.0201 89.27 50.5001 88.38 49.4701C87.49 48.4401 87.05 47.2701 87.05 45.9601C87.05 44.7301 87.43 43.6401 88.18 42.6801C89.13 41.4601 90.41 40.8501 92.01 40.8501C93.61 40.8501 94.98 41.4801 95.96 42.7301C96.66 43.6101 97.02 44.7201 97.03 46.0401H88.33C88.35 47.1601 88.71 48.0801 89.41 48.8001C90.1 49.5201 90.96 49.8801 91.98 49.8801C92.47 49.8801 92.95 49.7901 93.42 49.6201C93.89 49.4501 94.28 49.2201 94.61 48.9401C94.94 48.6601 95.29 48.2001 95.67 47.5701L95.65 47.5601ZM95.65 44.9601C95.48 44.3001 95.24 43.7701 94.92 43.3701C94.6 42.9701 94.18 42.6501 93.66 42.4101C93.14 42.1701 92.59 42.0501 92.01 42.0501C91.06 42.0501 90.24 42.3601 89.56 42.9701C89.06 43.4101 88.69 44.0801 88.43 44.9701H95.64L95.65 44.9601Z" fill="#2E6B47"/>
<path d="M107.36 43.1101L106.37 43.7201C105.52 42.5901 104.35 42.0201 102.88 42.0201C101.7 42.0201 100.72 42.4001 99.95 43.1601C99.17 43.9201 98.78 44.8401 98.78 45.9201C98.78 46.6201 98.96 47.2901 99.32 47.9101C99.68 48.5301 100.17 49.0101 100.79 49.3601C101.41 49.7001 102.11 49.8801 102.89 49.8801C104.31 49.8801 105.47 49.3101 106.37 48.1801L107.36 48.8301C106.9 49.5301 106.28 50.0701 105.5 50.4501C104.72 50.8301 103.83 51.0301 102.84 51.0301C101.31 51.0301 100.04 50.5401 99.04 49.5701C98.04 48.6001 97.53 47.4201 97.53 46.0201C97.53 45.0801 97.77 44.2101 98.24 43.4101C98.71 42.6101 99.36 41.9801 100.18 41.5301C101 41.0801 101.93 40.8501 102.94 40.8501C103.58 40.8501 104.2 40.9501 104.79 41.1401C105.38 41.3301 105.89 41.5901 106.31 41.9001C106.73 42.2101 107.08 42.6101 107.37 43.1001L107.36 43.1101Z" fill="#2E6B47"/>
<path d="M112.96 40.8501C114.45 40.8501 115.68 41.3901 116.66 42.4701C117.55 43.4501 118 44.6201 118 45.9601C118 47.3001 117.53 48.4901 116.59 49.5001C115.65 50.5101 114.44 51.0201 112.96 51.0201C111.48 51.0201 110.26 50.5101 109.32 49.5001C108.38 48.4901 107.91 47.3101 107.91 45.9601C107.91 44.6101 108.36 43.4601 109.25 42.4801C110.23 41.4001 111.47 40.8501 112.96 40.8501ZM112.95 42.0701C111.92 42.0701 111.03 42.4501 110.28 43.2201C109.54 43.9801 109.16 44.9101 109.16 45.9901C109.16 46.6901 109.33 47.3401 109.67 47.9501C110.01 48.5501 110.47 49.0201 111.04 49.3501C111.61 49.6801 112.25 49.8401 112.94 49.8401C113.63 49.8401 114.26 49.6801 114.84 49.3501C115.42 49.0201 115.87 48.5501 116.21 47.9501C116.55 47.3501 116.72 46.6901 116.72 45.9901C116.72 44.9101 116.35 43.9801 115.6 43.2201C114.85 42.4601 113.97 42.0701 112.94 42.0701H112.95Z" fill="#2E6B47"/>
<path d="M118.13 45.3101H123.02V46.3901H118.13V45.3101Z" fill="#2E6B47"/>
<path d="M127.59 37.3701V38.5901C127.13 38.3901 126.74 38.3001 126.42 38.3001C126.18 38.3001 125.98 38.3501 125.82 38.4501C125.66 38.5501 125.56 38.6601 125.52 38.7901C125.48 38.9201 125.46 39.2601 125.46 39.8101V41.1201H127.48V42.2001H125.46V50.7901H124.21V42.2001H122.94V41.1201H124.21V39.6101C124.21 38.9201 124.27 38.4201 124.4 38.1301C124.53 37.8401 124.74 37.6001 125.05 37.4101C125.36 37.2201 125.72 37.1401 126.16 37.1401C126.56 37.1401 127.05 37.2201 127.61 37.3901L127.59 37.3701Z" fill="#2E6B47"/>
<path d="M127.49 41.1001H128.76V42.5101C129.14 41.9501 129.54 41.5401 129.96 41.2601C130.38 40.9801 130.82 40.8501 131.28 40.8501C131.62 40.8501 131.99 40.9601 132.38 41.1801L131.73 42.2301C131.47 42.1201 131.25 42.0601 131.07 42.0601C130.66 42.0601 130.26 42.2301 129.87 42.5701C129.48 42.9101 129.19 43.4401 128.99 44.1601C128.84 44.7101 128.76 45.8301 128.76 47.5001V50.7701H127.49V41.1001Z" fill="#2E6B47"/>
<path d="M132.5 37.1201C132.78 37.1201 133.03 37.2201 133.23 37.4201C133.43 37.6201 133.53 37.8601 133.53 38.1501C133.53 38.4401 133.43 38.6701 133.23 38.8701C133.03 39.0701 132.79 39.1701 132.5 39.1701C132.21 39.1701 131.98 39.0701 131.78 38.8701C131.58 38.6701 131.48 38.4301 131.48 38.1501C131.48 37.8701 131.58 37.6201 131.78 37.4201C131.98 37.2201 132.22 37.1201 132.5 37.1201ZM131.88 41.1001H133.12V50.7701H131.88V41.1001Z" fill="#2E6B47"/>
<path d="M142.49 47.5601L143.54 48.1101C143.2 48.7901 142.8 49.3301 142.35 49.7501C141.9 50.1701 141.39 50.4801 140.83 50.7001C140.27 50.9201 139.63 51.0201 138.92 51.0201C137.34 51.0201 136.11 50.5001 135.22 49.4701C134.33 48.4401 133.89 47.2701 133.89 45.9601C133.89 44.7301 134.27 43.6401 135.02 42.6801C135.97 41.4601 137.25 40.8501 138.85 40.8501C140.45 40.8501 141.82 41.4801 142.8 42.7301C143.5 43.6101 143.86 44.7201 143.87 46.0401H135.17C135.19 47.1601 135.55 48.0801 136.25 48.8001C136.94 49.5201 137.8 49.8801 138.82 49.8801C139.31 49.8801 139.79 49.7901 140.26 49.6201C140.73 49.4501 141.12 49.2201 141.45 48.9401C141.78 48.6601 142.13 48.2001 142.51 47.5701L142.49 47.5601ZM142.49 44.9601C142.32 44.3001 142.08 43.7701 141.76 43.3701C141.44 42.9701 141.02 42.6501 140.5 42.4101C139.98 42.1701 139.43 42.0501 138.85 42.0501C137.9 42.0501 137.08 42.3601 136.4 42.9701C135.9 43.4101 135.53 44.0801 135.27 44.9701H142.48L142.49 44.9601Z" fill="#2E6B47"/>
<path d="M144.81 41.1001H146.05V42.8301C146.55 42.1701 147.1 41.6701 147.7 41.3401C148.3 41.0101 148.96 40.8501 149.67 40.8501C150.38 40.8501 151.03 41.0301 151.59 41.4001C152.15 41.7701 152.56 42.2601 152.83 42.8801C153.1 43.5001 153.23 44.4701 153.23 45.7901V50.7701H151.99V46.1601C151.99 45.0501 151.94 44.3001 151.85 43.9301C151.71 43.2901 151.43 42.8101 151.02 42.4901C150.61 42.1701 150.08 42.0101 149.42 42.0101C148.67 42.0101 147.99 42.2601 147.4 42.7601C146.81 43.2601 146.41 43.8701 146.22 44.6101C146.1 45.0901 146.04 45.9701 146.04 47.2401V50.7901H144.8V41.1201L144.81 41.1001Z" fill="#2E6B47"/>
<path d="M164.2 37.3701V50.7701H162.97V49.1101C162.45 49.7401 161.86 50.2201 161.21 50.5401C160.56 50.8601 159.85 51.0201 159.08 51.0201C157.71 51.0201 156.54 50.5201 155.57 49.5301C154.6 48.5401 154.12 47.3301 154.12 45.9101C154.12 44.4901 154.61 43.3301 155.59 42.3401C156.57 41.3501 157.74 40.8601 159.12 40.8601C159.91 40.8601 160.63 41.0301 161.28 41.3701C161.93 41.7101 162.49 42.2101 162.97 42.8901V37.3801H164.2V37.3701ZM159.23 42.0501C158.54 42.0501 157.9 42.2201 157.31 42.5601C156.72 42.9001 156.26 43.3801 155.91 43.9901C155.56 44.6101 155.39 45.2601 155.39 45.9401C155.39 46.6201 155.56 47.2701 155.91 47.8901C156.26 48.5101 156.73 49.0001 157.32 49.3401C157.91 49.6901 158.54 49.8601 159.22 49.8601C159.9 49.8601 160.55 49.6901 161.16 49.3401C161.77 49.0001 162.24 48.5301 162.57 47.9501C162.9 47.3601 163.06 46.7001 163.06 45.9701C163.06 44.8501 162.69 43.9201 161.95 43.1601C161.21 42.4001 160.31 42.0301 159.23 42.0301V42.0501Z" fill="#2E6B47"/>
<path d="M165.47 37.3701H166.71V50.7701H165.47V37.3701Z" fill="#2E6B47"/>
<path d="M166.89 41.1001H168.21L171.53 48.5501L174.76 41.1001H176.08L170.31 54.3101H169L170.86 50.0401L166.89 41.1001Z" fill="#2E6B47"/>
<path d="M179.81 37.3701H181.05V50.7701H179.81V37.3701Z" fill="#2E6B47"/>
<path d="M190.42 47.5601L191.47 48.1101C191.13 48.7901 190.73 49.3301 190.28 49.7501C189.83 50.1701 189.32 50.4801 188.76 50.7001C188.2 50.9201 187.56 51.0201 186.85 51.0201C185.27 51.0201 184.04 50.5001 183.15 49.4701C182.26 48.4401 181.82 47.2701 181.82 45.9601C181.82 44.7301 182.2 43.6401 182.95 42.6801C183.9 41.4601 185.18 40.8501 186.78 40.8501C188.38 40.8501 189.75 41.4801 190.73 42.7301C191.43 43.6101 191.79 44.7201 191.8 46.0401H183.1C183.12 47.1601 183.48 48.0801 184.18 48.8001C184.87 49.5201 185.73 49.8801 186.75 49.8801C187.24 49.8801 187.72 49.7901 188.19 49.6201C188.66 49.4501 189.05 49.2201 189.38 48.9401C189.71 48.6601 190.06 48.2001 190.44 47.5701L190.42 47.5601ZM190.42 44.9601C190.25 44.3001 190.01 43.7701 189.69 43.3701C189.37 42.9701 188.95 42.6501 188.43 42.4101C187.91 42.1701 187.36 42.0501 186.78 42.0501C185.83 42.0501 185.01 42.3601 184.33 42.9701C183.83 43.4101 183.46 44.0801 183.2 44.9701H190.41L190.42 44.9601Z" fill="#2E6B47"/>
<path d="M202.38 41.1001V50.7701H201.15V49.1101C200.63 49.7401 200.04 50.2201 199.39 50.5401C198.74 50.8601 198.03 51.0201 197.26 51.0201C195.89 51.0201 194.72 50.5201 193.75 49.5301C192.78 48.5401 192.3 47.3301 192.3 45.9101C192.3 44.4901 192.79 43.3301 193.77 42.3401C194.75 41.3501 195.92 40.8601 197.3 40.8601C198.09 40.8601 198.81 41.0301 199.46 41.3701C200.11 41.7101 200.67 42.2101 201.15 42.8901V41.1101H202.38V41.1001ZM197.4 42.0501C196.71 42.0501 196.07 42.2201 195.48 42.5601C194.89 42.9001 194.43 43.3801 194.08 43.9901C193.73 44.6101 193.56 45.2601 193.56 45.9401C193.56 46.6201 193.73 47.2701 194.08 47.8901C194.43 48.5101 194.9 49.0001 195.49 49.3401C196.08 49.6901 196.71 49.8601 197.39 49.8601C198.07 49.8601 198.72 49.6901 199.33 49.3401C199.94 49.0001 200.41 48.5301 200.74 47.9501C201.07 47.3601 201.23 46.7001 201.23 45.9701C201.23 44.8501 200.86 43.9201 200.12 43.1601C199.38 42.4001 198.48 42.0301 197.4 42.0301V42.0501Z" fill="#2E6B47"/>
<path d="M204.89 37.51H206.13V41.1H208.1V42.18H206.13V50.77H204.89V42.18H203.19V41.1H204.89V37.51Z" fill="#2E6B47"/>
<path d="M208.61 37.3701H209.85V42.8401C210.35 42.1801 210.91 41.6801 211.51 41.3501C212.11 41.0201 212.77 40.8601 213.47 40.8601C214.17 40.8601 214.83 41.0401 215.39 41.4101C215.95 41.7801 216.36 42.2701 216.63 42.8901C216.9 43.5101 217.03 44.4801 217.03 45.8001V50.7801H215.79V46.1701C215.79 45.0601 215.75 44.3101 215.66 43.9401C215.51 43.3001 215.23 42.8201 214.82 42.5001C214.41 42.1801 213.88 42.0201 213.22 42.0201C212.47 42.0201 211.79 42.2701 211.2 42.7701C210.61 43.2701 210.21 43.8801 210.02 44.6201C209.9 45.0901 209.84 45.9701 209.84 47.2501V50.8001H208.6V37.4001L208.61 37.3701Z" fill="#2E6B47"/>
<path d="M226.49 47.5601L227.54 48.1101C227.2 48.7901 226.8 49.3301 226.35 49.7501C225.9 50.1701 225.39 50.4801 224.83 50.7001C224.27 50.9201 223.63 51.0201 222.92 51.0201C221.34 51.0201 220.11 50.5001 219.22 49.4701C218.33 48.4401 217.89 47.2701 217.89 45.9601C217.89 44.7301 218.27 43.6401 219.02 42.6801C219.97 41.4601 221.25 40.8501 222.85 40.8501C224.45 40.8501 225.82 41.4801 226.8 42.7301C227.5 43.6101 227.86 44.7201 227.87 46.0401H219.17C219.19 47.1601 219.55 48.0801 220.25 48.8001C220.94 49.5201 221.8 49.8801 222.82 49.8801C223.31 49.8801 223.79 49.7901 224.26 49.6201C224.73 49.4501 225.12 49.2201 225.45 48.9401C225.78 48.6601 226.13 48.2001 226.51 47.5701L226.49 47.5601ZM226.49 44.9601C226.32 44.3001 226.08 43.7701 225.76 43.3701C225.44 42.9701 225.02 42.6501 224.5 42.4101C223.98 42.1701 223.43 42.0501 222.85 42.0501C221.9 42.0501 221.08 42.3601 220.4 42.9701C219.9 43.4101 219.53 44.0801 219.27 44.9701H226.48L226.49 44.9601Z" fill="#2E6B47"/>
<path d="M228.34 41.1001H229.61V42.5101C229.99 41.9501 230.39 41.5401 230.81 41.2601C231.23 40.9801 231.67 40.8501 232.13 40.8501C232.47 40.8501 232.84 40.9601 233.23 41.1801L232.58 42.2301C232.32 42.1201 232.1 42.0601 231.92 42.0601C231.51 42.0601 231.11 42.2301 230.72 42.5701C230.33 42.9101 230.04 43.4401 229.84 44.1601C229.69 44.7101 229.61 45.8301 229.61 47.5001V50.7701H228.34V41.1001Z" fill="#2E6B47"/>
<path d="M77.67 28.77C78.33 29.31 78.98 29.83 79.62 30.32C76.33 30.07 76.46 27.74 76.46 27.74C76.85 28.08 77.26 28.43 77.67 28.77Z" fill="#2E6B47"/>
<path d="M81.06 19.26C80.35 19.75 79.67 20.1 79.1 20.34C79.1 20.34 79.12 20.34 79.13 20.34C79.12 20.34 79.11 20.34 79.1 20.35C79 20.57 78.92 20.77 78.94 20.79L78.2 20.17C79.8 18.13 81.01 13.74 81.01 13.74C81.06 14.55 80.81 15.63 80.58 16.39C80.23 17.53 79.81 18.64 79.37 19.75C79.37 19.76 79.34 19.81 79.32 19.87C79.65 19.27 80.31 18.31 81.23 18.15C82.6 17.9 83.15 17.41 83.15 17.41C82.66 17.97 81.98 18.64 81.06 19.27V19.26Z" fill="#2E6B47"/>
<path d="M79.13 20.3399C81.62 19.6599 83.15 17.3999 83.15 17.3999C82.98 17.8699 82.77 18.3299 82.53 18.7699C82.36 19.0799 82.18 19.4099 81.93 19.6599C81.58 20.0199 81 20.2199 80.52 20.2899C80.33 20.3099 80.15 20.3199 79.96 20.3299C79.87 20.3299 79.31 20.3199 79.13 20.3299V20.3399Z" fill="#2E6B47"/>
<path d="M38.4 28.77C37.74 29.31 37.17 29.83 36.53 30.32C39.82 30.07 39.69 27.74 39.69 27.74C39.3 28.08 38.82 28.43 38.4 28.77Z" fill="#2E6B47"/>
<path d="M67.38 10.4099C67.5 10.5299 67.63 10.6399 67.75 10.7599C68 10.9899 68.26 11.2099 68.52 11.4199C69.04 11.8499 69.59 12.2599 70.1 12.6999C70.22 12.7999 70.33 12.8999 70.45 12.9999C70.51 13.0599 71.24 13.7899 71.3 13.8299C70.36 13.9199 69.61 13.7299 68.92 13.0799C68.32 12.5199 67.88 11.7999 67.51 11.0799C67.42 10.9099 67.33 10.7299 67.25 10.5499C67.22 10.4699 67.15 10.2399 67.09 10.1299C67.19 10.2099 67.29 10.3299 67.38 10.4199V10.4099Z" fill="#2E6B47"/>
<path d="M73.3 21.8999C72.8 22.1199 72.13 22.1199 71.6 22.0299C71.6 22.0299 71.66 22.0299 71.69 22.0099C73.02 21.5799 73.48 21.1999 73.48 21.1999C73.63 21.0799 74.04 20.7399 74.36 20.1699C74.41 20.0799 74.46 19.9899 74.49 19.9099C74.42 20.1699 74.34 20.4199 74.24 20.6699C74.05 21.1499 73.79 21.6799 73.29 21.8899L73.3 21.8999Z" fill="#2E6B47"/>
<path d="M42.76 21.1101C43 21.2801 43.28 21.4101 43.83 21.6801C44.16 21.8401 44.55 22.0201 44.54 22.0301L44.38 21.7401C44.16 21.3401 43.79 21.0601 43.4 20.8401C43 20.6201 42.55 20.5101 42.18 20.2501C41.99 20.1201 41.81 19.9701 41.64 19.8201C41.74 19.9601 42.07 20.6301 42.76 21.1001V21.1101Z" fill="#2E6B47"/>
<path d="M48.77 10.4099C48.65 10.5299 48.52 10.6399 48.4 10.7599C48.15 10.9899 47.89 11.2099 47.63 11.4199C47.11 11.8499 46.56 12.2599 46.05 12.6999C45.93 12.7999 45.82 12.8999 45.7 12.9999C45.64 13.0599 44.91 13.7899 44.85 13.8299C45.79 13.9199 46.54 13.7299 47.23 13.0799C47.83 12.5199 48.27 11.7999 48.64 11.0799C48.73 10.9099 48.82 10.7299 48.9 10.5499C48.93 10.4699 49 10.2399 49.06 10.1299C48.96 10.2099 48.86 10.3299 48.77 10.4199V10.4099Z" fill="#2E6B47"/>
<path d="M61.63 34.02C61.7 33.61 61.92 32.8 62.04 32.49C62.18 32.14 62.52 31.43 62.8 31.17C64.29 29.77 66.63 30.15 68.61 29.81C71.61 29.29 74.65 28.67 77.39 27.31C78.2 26.91 78.87 26.5 79.55 25.79C80.56 24.74 80.22 23.08 79.44 21.89C79.06 21.31 78.56 20.81 78.01 20.39C77.74 20.18 77.47 19.99 77.18 19.82C76.97 19.69 76.59 19.57 76.42 19.41C77.45 20.44 78.32 21.58 78.78 22.98C78.96 23.52 79.08 24.14 78.76 24.65C78.47 25.11 77.99 25.45 77.53 25.73C77.17 25.96 75.63 26.71 75.75 25.67C75.78 25.36 76.01 25.05 76.21 24.83C76.21 24.83 76.21 24.83 76.21 24.82L77.99 22.4C78.04 22.34 78.19 22.1 78.16 22.04C78.02 21.82 77.99 21.69 77.66 21.31C77.4 21.65 76.52 22.76 76.33 23C75.66 23.86 74.87 24.81 74.39 25.15C73.47 25.8 72.41 27.26 67.45 27.75C67.27 27.77 67.16 27.55 67.28 27.42C68.09 26.56 70.07 24.42 70.79 23.33C71.71 21.95 72.65 20.19 72.9 19.01C73.02 18.43 73 17.22 73.16 15.93V16.22C76.14 16.75 76.86 13.06 76.86 13.06C76.5 13.47 76.08 13.91 75.61 14.34C74.75 15.12 73.91 15.71 73.17 16.16C73.6 15.78 74.05 15.41 74.49 15.03C75.29 14.35 76.08 13.7 76.87 13.06C73.98 13.71 73.35 15.06 73.21 15.64C73.3 15.03 73.44 14.42 73.65 13.85C74.27 12.23 76.65 9.34 77.63 8.55C76.74 9.14 75.87 9.77 75.03 10.42C74.28 11 73.67 11.8 73.22 12.6C73.11 12.79 73.02 13 72.93 13.2C72.83 13.43 72.53 13.96 72.58 14.2C72.33 12.94 72.07 11.69 71.67 10.47C71.38 9.59 71.06 8.69 70.52 7.94C69.99 7.2 69.3 6.6 68.6 6.02C68.26 5.74 67.92 5.46 67.56 5.2C67.49 5.15 67.34 5.09 67.28 5.01C67.28 5.01 69.68 8.18 69.98 8.92C70.28 9.66 71.37 12.3 71.4 14.04C71.43 15.79 71.31 19.73 69.83 21.62C69.29 22.31 68.78 23.02 68.29 23.68C68.29 23.68 68.4 23.35 68.41 23.33C68.49 23.04 68.55 22.73 68.57 22.43C68.61 21.76 68.34 21.17 67.97 20.62C67.71 20.23 67.41 19.88 67.15 19.49C66.89 19.11 66.96 18.62 67.04 18.19C67.02 18.32 66.87 18.49 66.81 18.61C66.65 18.94 66.51 19.29 66.43 19.65C66.09 21.18 67.04 22.86 68.29 23.69C67.43 24.83 66.6 25.83 65.62 26.37C64.53 26.98 63.13 27.58 62.42 27.87C62.25 27.94 62.09 27.77 62.17 27.6C62.35 27.2 62.63 26.57 62.85 25.89C62.93 25.65 62.58 25.51 62.48 25.75C62.13 26.54 61.66 27.35 61.07 27.82C61.07 27.82 60.02 28.35 59.71 28.87C58.98 30.07 59.81 30.18 58.84 33.41C58.58 33.39 58.32 33.37 58.07 33.37C57.82 33.37 57.56 33.39 57.3 33.41C56.34 30.19 57.17 30.08 56.43 28.87C56.11 28.35 55.07 27.82 55.07 27.82C54.47 27.35 54 26.54 53.66 25.75C53.56 25.52 53.21 25.65 53.29 25.89C53.52 26.56 53.79 27.19 53.97 27.6C54.04 27.76 53.88 27.93 53.72 27.87C53.01 27.58 51.61 26.98 50.52 26.37C49.54 25.83 48.71 24.83 47.85 23.69C49.1 22.86 50.05 21.18 49.71 19.65C49.63 19.29 49.5 18.94 49.33 18.61C49.27 18.49 49.12 18.32 49.1 18.19C49.18 18.63 49.25 19.11 48.99 19.49C48.73 19.87 48.43 20.23 48.17 20.62C47.8 21.17 47.53 21.76 47.57 22.43C47.59 22.73 47.64 23.04 47.73 23.33C47.73 23.35 47.85 23.68 47.85 23.68C47.35 23.02 46.85 22.32 46.31 21.62C44.83 19.72 44.71 15.78 44.74 14.04C44.77 12.29 45.87 9.66 46.16 8.92C46.46 8.17 48.85 5 48.86 5C48.81 5.07 48.66 5.13 48.58 5.19C48.22 5.45 47.88 5.73 47.54 6.01C46.84 6.59 46.15 7.19 45.62 7.93C45.08 8.68 44.75 9.58 44.47 10.46C44.07 11.68 43.81 12.93 43.56 14.19C43.61 13.95 43.31 13.42 43.21 13.19C43.12 12.99 43.03 12.78 42.92 12.59C42.47 11.79 41.86 10.99 41.11 10.41C40.27 9.75 39.4 9.13 38.51 8.54C39.49 9.33 41.87 12.22 42.49 13.84C42.71 14.4 42.84 15.02 42.93 15.63C42.79 15.05 42.16 13.71 39.27 13.05C40.06 13.69 40.85 14.35 41.65 15.02C42.1 15.4 42.54 15.77 42.97 16.15C42.23 15.7 41.38 15.11 40.53 14.33C40.05 13.89 39.63 13.46 39.28 13.05C39.28 13.05 40 16.74 42.98 16.21V15.92C43.14 17.21 43.12 18.43 43.24 19C43.49 20.18 44.43 21.94 45.35 23.32C46.07 24.41 48.04 26.54 48.86 27.41C48.98 27.54 48.87 27.76 48.69 27.74C43.73 27.25 42.67 25.79 41.75 25.14C41.28 24.8 40.49 23.86 39.81 22.99C39.62 22.75 38.81 21.65 38.55 21.3C38.23 21.67 38.12 21.8 38.05 22.1C38.01 22.17 38.09 22.33 38.14 22.39L39.92 24.81C39.92 24.81 39.92 24.81 39.92 24.82C40.12 25.05 40.35 25.36 40.38 25.66C40.5 26.7 38.96 25.95 38.6 25.72C38.15 25.43 37.66 25.1 37.37 24.64C37.05 24.13 37.17 23.52 37.35 22.97C37.81 21.57 38.68 20.43 39.71 19.4C39.55 19.56 39.17 19.68 38.95 19.81C38.66 19.99 38.38 20.18 38.12 20.38C37.58 20.81 37.08 21.3 36.69 21.88C35.91 23.06 35.57 24.73 36.58 25.78C37.26 26.49 37.93 26.89 38.74 27.3C41.48 28.67 44.52 29.29 47.52 29.8C49.5 30.14 51.84 29.76 53.33 31.16C53.61 31.42 53.95 32.13 54.09 32.48C54.21 32.79 54.35 33.52 54.47 34.01M67.81 22.34C67.5 21.71 67.37 21.7 67.17 21.3C66.53 19.97 67.04 18.22 67.04 18.22C66.72 19.66 66.96 20.53 67.27 21.06C67.5 21.45 67.92 21.94 68.16 22.82C68.26 23.18 68.29 23.48 68.3 23.69C68.22 23.37 68.08 22.89 67.81 22.35V22.34ZM47.85 23.68C47.86 23.47 47.9 23.17 47.99 22.81C48.22 21.93 48.65 21.44 48.88 21.05C49.19 20.52 49.44 19.65 49.11 18.21C49.11 18.21 49.62 19.96 48.98 21.29C48.78 21.7 48.65 21.7 48.34 22.33C48.07 22.87 47.93 23.35 47.85 23.67V23.68Z" fill="#2E6B47"/>
<path d="M37.02 20.3399C37.02 20.3399 37.04 20.3399 37.05 20.3399C36.48 20.0899 35.8 19.7499 35.09 19.2599C34.17 18.6299 33.49 17.9499 33 17.3999C33 17.3999 34.52 19.6599 37.02 20.3399Z" fill="#2E6B47"/>
<path d="M42.66 21.2101C42.66 21.2101 43.13 21.5801 44.45 22.0201C44.48 22.0301 44.54 22.0501 44.54 22.0401C44.54 22.0201 44.16 21.8501 43.83 21.6901C43.28 21.4201 43 21.2901 42.76 21.1201C42.07 20.6501 41.74 19.9701 41.64 19.8401C41.64 19.8401 41.62 19.8201 41.61 19.8201C41.61 19.8601 41.63 19.9001 41.64 19.9401C41.67 20.0101 41.72 20.1101 41.77 20.2001C42.09 20.7601 42.5 21.1101 42.65 21.2301L42.66 21.2101Z" fill="#2E6B47"/>
<path d="M39.69 27.74C38.29 28.3 36.53 30.32 36.53 30.32C37.17 29.83 37.82 29.32 38.48 28.77C38.9 28.43 39.3 28.08 39.69 27.74Z" fill="#2E6B47"/>
<path d="M46.7 11.8901C46.43 12.1101 46.16 12.3301 45.9 12.5501C45.67 12.7401 45.41 12.9401 45.22 13.1801C45.07 13.3801 44.95 13.6001 44.84 13.8201C44.9 13.7801 45.63 13.0501 45.69 12.9901C45.8 12.8901 45.92 12.7901 46.04 12.6901C46.56 12.2501 47.1 11.8501 47.62 11.4101C47.88 11.1901 48.14 10.9701 48.39 10.7501C48.52 10.6401 48.64 10.5201 48.76 10.4001C48.85 10.3101 48.95 10.2001 49.05 10.1101C48.81 10.2801 48.57 10.4501 48.33 10.6201C47.77 11.0301 47.22 11.4501 46.68 11.8801L46.7 11.8901Z" fill="#2E6B47"/>
<path d="M47.59 10.5701C47.01 10.6301 46.44 10.8501 45.97 11.2001C45.44 11.6001 45.09 12.1201 44.93 12.7701C44.91 12.8301 44.75 13.8201 44.83 13.8301C44.94 13.6101 45.06 13.3801 45.21 13.1901C45.4 12.9501 45.66 12.7501 45.89 12.5601C46.16 12.3401 46.42 12.1201 46.69 11.9001C47.23 11.4701 47.78 11.0401 48.34 10.6401C48.58 10.4701 48.82 10.3001 49.06 10.1301C49.07 10.1101 49.09 10.0901 49.1 10.0801C48.64 10.3401 48.11 10.5301 47.58 10.5801L47.59 10.5701Z" fill="#2E6B47"/>
<path d="M49.11 10.0801C49.11 10.0801 49.08 10.1001 49.07 10.1101C49.09 10.1001 49.1 10.0801 49.12 10.0701L49.11 10.0801Z" fill="#2E6B47"/>
<path d="M38.51 8.5401C38.39 8.4501 38.3 8.3801 38.22 8.3501C38.32 8.4101 38.41 8.4801 38.51 8.5401Z" fill="#2E6B47"/>
<path d="M35.09 19.26C35.8 19.75 36.48 20.1 37.05 20.34C37.05 20.34 37.03 20.34 37.02 20.34C37.03 20.34 37.04 20.34 37.05 20.35C37.15 20.57 37.23 20.77 37.21 20.79L37.95 20.17C36.35 18.13 35.14 13.74 35.14 13.74C35.09 14.55 35.34 15.63 35.57 16.39C35.92 17.53 36.34 18.64 36.78 19.75C36.78 19.76 36.81 19.81 36.83 19.87C36.5 19.27 35.84 18.31 34.92 18.15C33.55 17.9 33 17.41 33 17.41C33.49 17.97 34.17 18.64 35.09 19.27V19.26Z" fill="#2E6B47"/>
<path d="M37.02 20.3399C34.46 19.8599 33 17.3999 33 17.3999C33.17 17.8699 33.38 18.3299 33.62 18.7699C33.79 19.0799 33.97 19.4099 34.22 19.6599C34.57 20.0199 35.15 20.2199 35.63 20.2899C35.82 20.3099 36 20.3199 36.19 20.3299C36.28 20.3299 36.84 20.3199 37.02 20.3299V20.3399Z" fill="#2E6B47"/>
<path d="M42.85 21.8999C43.35 22.1199 44.02 22.1199 44.55 22.0299C44.55 22.0299 44.49 22.0299 44.46 22.0099C43.13 21.5799 42.67 21.1999 42.67 21.1999C42.52 21.0799 42.11 20.7399 41.79 20.1699C41.74 20.0799 41.69 19.9899 41.66 19.9099C41.73 20.1699 41.81 20.4199 41.91 20.6699C42.1 21.1499 42.36 21.6799 42.86 21.8899L42.85 21.8999Z" fill="#2E6B47"/>
<path d="M41.65 19.92C41.65 19.92 41.63 19.84 41.62 19.8C41.61 19.8 41.62 19.85 41.65 19.92Z" fill="#2E6B47"/>
<path d="M39.69 27.74C39.69 27.74 39.1 27.48 38.19 28C37.28 28.52 36.53 30.32 36.53 30.32C36.53 30.32 38.29 28.31 39.69 27.74Z" fill="#2E6B47"/>
<path d="M48.98 21.29C49.62 19.96 49.11 18.21 49.11 18.21C49.43 19.65 49.19 20.52 48.88 21.05C48.65 21.44 48.23 21.93 47.99 22.81C47.89 23.17 47.86 23.47 47.85 23.68C47.93 23.36 48.07 22.88 48.34 22.34C48.65 21.71 48.78 21.7 48.98 21.3V21.29Z" fill="#2E6B47"/>
<path d="M40.52 14.33C41.38 15.11 42.22 15.7 42.96 16.15C42.53 15.77 42.08 15.4 41.64 15.02C40.84 14.34 40.05 13.69 39.26 13.05C39.62 13.46 40.04 13.9 40.51 14.33H40.52Z" fill="#2E6B47"/>
<path d="M79.13 20.3399C79.13 20.3399 79.11 20.3399 79.1 20.3399C79.67 20.0899 80.35 19.7499 81.06 19.2599C81.98 18.6299 82.66 17.9499 83.15 17.3999C83.15 17.3999 81.63 19.6599 79.13 20.3399Z" fill="#2E6B47"/>
<path d="M73.49 21.2101C73.49 21.2101 73.02 21.5801 71.7 22.0201C71.67 22.0301 71.61 22.0501 71.61 22.0401C71.61 22.0201 71.99 21.8501 72.32 21.6901C72.87 21.4201 73.15 21.2901 73.39 21.1201C74.08 20.6501 74.41 19.9701 74.51 19.8401C74.51 19.8401 74.53 19.8201 74.54 19.8201C74.54 19.8601 74.52 19.9001 74.51 19.9401C74.48 20.0101 74.43 20.1101 74.38 20.2001C74.06 20.7601 73.65 21.1101 73.5 21.2301L73.49 21.2101Z" fill="#2E6B47"/>
<path d="M76.46 27.74C77.86 28.3 79.62 30.32 79.62 30.32C78.98 29.83 78.33 29.32 77.67 28.77C77.25 28.43 76.85 28.08 76.46 27.74Z" fill="#2E6B47"/>
<path d="M69.45 11.8901C69.72 12.1101 69.99 12.3301 70.25 12.5501C70.48 12.7401 70.74 12.9401 70.93 13.1801C71.08 13.3801 71.2 13.6001 71.31 13.8201C71.25 13.7801 70.52 13.0501 70.46 12.9901C70.35 12.8901 70.23 12.7901 70.11 12.6901C69.59 12.2501 69.05 11.8501 68.53 11.4101C68.27 11.1901 68.01 10.9701 67.76 10.7501C67.63 10.6401 67.51 10.5201 67.39 10.4001C67.3 10.3101 67.2 10.2001 67.1 10.1101C67.34 10.2801 67.58 10.4501 67.82 10.6201C68.38 11.0301 68.93 11.4501 69.47 11.8801L69.45 11.8901Z" fill="#2E6B47"/>
<path d="M68.56 10.5701C69.14 10.6301 69.71 10.8501 70.18 11.2001C70.71 11.6001 71.06 12.1201 71.22 12.7701C71.24 12.8301 71.4 13.8201 71.32 13.8301C71.21 13.6101 71.09 13.3801 70.94 13.1901C70.75 12.9501 70.49 12.7501 70.26 12.5601C69.99 12.3401 69.73 12.1201 69.46 11.9001C68.92 11.4701 68.37 11.0401 67.81 10.6401C67.57 10.4701 67.33 10.3001 67.09 10.1301C67.08 10.1101 67.06 10.0901 67.05 10.0801C67.51 10.3401 68.04 10.5301 68.57 10.5801L68.56 10.5701Z" fill="#2E6B47"/>
<path d="M67.04 10.0801C67.04 10.0801 67.07 10.1001 67.08 10.1101C67.06 10.1001 67.05 10.0801 67.03 10.0701L67.04 10.0801Z" fill="#2E6B47"/>
<path d="M77.64 8.5401C77.76 8.4501 77.85 8.3801 77.93 8.3501C77.83 8.4101 77.74 8.4801 77.64 8.5401Z" fill="#2E6B47"/>
<path d="M73.38 21.1101C73.14 21.2801 72.86 21.4101 72.31 21.6801C71.98 21.8401 71.59 22.0201 71.6 22.0301L71.76 21.7401C71.98 21.3401 72.35 21.0601 72.74 20.8401C73.14 20.6201 73.59 20.5101 73.96 20.2501C74.15 20.1201 74.33 19.9701 74.5 19.8201C74.4 19.9601 74.07 20.6301 73.38 21.1001V21.1101Z" fill="#2E6B47"/>
<path d="M74.5 19.92C74.5 19.92 74.52 19.84 74.53 19.8C74.54 19.8 74.53 19.85 74.5 19.92Z" fill="#2E6B47"/>
<path d="M76.46 27.74C76.46 27.74 77.05 27.48 77.96 28C78.87 28.52 79.62 30.32 79.62 30.32C79.62 30.32 77.86 28.31 76.46 27.74Z" fill="#2E6B47"/>
<path d="M67.17 21.29C66.53 19.96 67.04 18.21 67.04 18.21C66.72 19.65 66.96 20.52 67.27 21.05C67.5 21.44 67.92 21.93 68.16 22.81C68.26 23.17 68.29 23.47 68.3 23.68C68.22 23.36 68.08 22.88 67.81 22.34C67.5 21.71 67.37 21.7 67.17 21.3V21.29Z" fill="#2E6B47"/>
<path d="M75.63 14.33C74.77 15.11 73.93 15.7 73.19 16.15C73.62 15.77 74.07 15.4 74.51 15.02C75.31 14.34 76.1 13.69 76.89 13.05C76.53 13.46 76.11 13.9 75.64 14.33H75.63Z" fill="#2E6B47"/>
<path d="M58.02 33.3799C56.94 33.3799 55.76 33.5699 54.49 34.0199C54.49 34.0199 57.01 45.8999 54.49 51.0999C56.39 52.8299 58.05 52.7199 58.05 52.7199C58.05 52.7199 59.71 52.8199 61.61 51.0999C59.1 45.8999 61.61 34.0199 61.61 34.0199C60.35 33.5599 59.16 33.3799 58.08 33.3799H58H58.02Z" fill="#2E6B47"/>
<path d="M61.08 44.0201C61.06 46.5101 61.27 49.0301 62.12 50.8101H62.13C62.13 50.8101 62.16 50.7901 62.18 50.7801C63.78 49.2701 65.48 47.4601 66.32 45.4001C66.74 44.3601 66.96 43.2601 67.1 42.1601C67.13 41.9401 67.27 40.0201 67.32 39.3101C63.49 43.7501 61.09 44.0201 61.09 44.0201H61.08Z" fill="#2E6B47"/>
<path d="M67.33 38.47C75.16 38.29 76.86 29.89 76.86 29.89C70 29.71 64.6 35.35 64.6 35.35C63.77 34.8 62.96 34.38 62.18 34.08C62.18 34.08 61.18 38.64 61.09 43.25C61.09 43.25 63.26 43.23 67.34 38.47H67.33Z" fill="#2E6B47"/>
<path d="M55.07 44.0201C55.09 46.5101 54.88 49.0301 54.03 50.8101H54.02C54.02 50.8101 53.99 50.7901 53.97 50.7801C52.37 49.2701 50.67 47.4601 49.83 45.4001C49.41 44.3601 49.19 43.2601 49.05 42.1601C49.02 41.9401 48.88 40.0201 48.83 39.3101C52.66 43.7501 55.06 44.0201 55.06 44.0201H55.07Z" fill="#2E6B47"/>
<path d="M48.82 38.47C40.99 38.29 39.29 29.89 39.29 29.89C46.15 29.71 51.55 35.35 51.55 35.35C52.38 34.8 53.19 34.38 53.97 34.08C53.97 34.08 54.97 38.64 55.06 43.25C55.06 43.25 52.89 43.23 48.81 38.47H48.82Z" fill="#2E6B47"/>
<path d="M179.63 23.08L181.09 22.21C182.12 24.1 183.3 25.04 184.65 25.04C185.22 25.04 185.76 24.91 186.27 24.64C186.78 24.37 187.16 24.01 187.42 23.56C187.68 23.11 187.82 22.63 187.82 22.13C187.82 21.56 187.63 20.99 187.24 20.44C186.7 19.68 185.72 18.76 184.3 17.69C182.87 16.61 181.98 15.83 181.63 15.35C181.02 14.54 180.72 13.67 180.72 12.73C180.72 11.98 180.9 11.3 181.26 10.69C181.62 10.08 182.12 9.58996 182.77 9.23996C183.42 8.88996 184.12 8.70996 184.89 8.70996C185.7 8.70996 186.45 8.90996 187.16 9.30996C187.86 9.70996 188.61 10.45 189.39 11.52L187.99 12.58C187.35 11.73 186.79 11.16 186.34 10.89C185.89 10.62 185.39 10.48 184.85 10.48C184.16 10.48 183.59 10.69 183.15 11.11C182.71 11.53 182.49 12.05 182.49 12.66C182.49 13.03 182.57 13.4 182.72 13.74C182.88 14.09 183.16 14.47 183.57 14.88C183.8 15.1 184.53 15.67 185.79 16.59C187.27 17.69 188.29 18.66 188.84 19.52C189.39 20.37 189.67 21.23 189.67 22.1C189.67 23.34 189.2 24.42 188.25 25.34C187.31 26.26 186.16 26.72 184.8 26.72C183.76 26.72 182.81 26.44 181.97 25.89C181.12 25.34 180.34 24.4 179.63 23.1V23.08Z" fill="#2E6B47"/>
<path d="M194.1 9.12012H195.85V15.5601L202.71 9.12012H205.01L196.77 16.8201L205.65 26.2801H203.37L195.85 18.2901V26.2801H194.1V9.12012Z" fill="#2E6B47"/>
<path d="M210.19 8.87012H211.9V26.0201H210.19V8.87012Z" fill="#2E6B47"/>
<path d="M216.09 26.0201V8.87012H216.46L227.88 22.0201V8.87012H229.57V26.0201H229.19L217.87 13.0301V26.0201H216.1H216.09Z" fill="#2E6B47"/>
</g>
<defs>
<clipPath id="clip0_38_131">
<rect width="266" height="56" fill="white"/>
</clipPath>
</defs>
</svg>
