<svg width="266" height="56" viewBox="0 0 266 56" fill="none" xmlns="http://www.w3.org/2000/svg">
<path d="M133.16 32.1293C133.131 32.1171 133.104 32.1073 133.072 32.0975C131.821 31.7084 130.534 31.3877 129.288 31.0745C127.276 30.5703 125.198 30.0489 123.294 29.2535C122.92 29.0895 122.69 28.8203 122.594 28.4336C122.491 28.0102 122.587 27.577 122.863 27.2172C123.162 26.828 123.615 26.598 124.104 26.5882C125.695 26.5564 127.325 26.5637 128.904 26.571C129.376 26.571 129.849 26.5759 130.323 26.5759L130.336 26.7742C130.363 27.1805 130.593 27.5403 130.955 27.7336C131.315 27.927 131.741 27.9196 132.095 27.7165L137.982 24.3267C138.344 24.1186 138.569 23.7295 138.569 23.311C138.569 22.8924 138.344 22.5033 137.984 22.2928L132.054 18.8614C131.692 18.6509 131.241 18.6509 130.879 18.8614C130.517 19.0694 130.292 19.4586 130.292 19.8771V20.2663C129.702 20.2712 129.109 20.2687 128.522 20.2687C126.51 20.2687 124.43 20.2638 122.362 20.4621C120.015 20.7068 118.137 21.7323 116.936 23.4309C115.687 25.1931 115.298 27.5696 115.866 29.951C116.436 32.3398 118.008 34.0604 120.411 34.9268C121.982 35.4922 123.63 35.8667 125.22 36.2264C125.727 36.3415 126.234 36.4565 126.738 36.5764L127.1 36.6621C128.527 36.9999 129.873 37.318 130.982 38.1649C131.665 38.6862 131.897 39.3201 131.714 40.162C131.52 41.0603 130.534 41.5277 128.806 41.5547C126.082 41.5277 123.311 41.5498 120.634 41.5718C116.914 41.6012 113.076 41.633 109.302 41.5302C112.312 37.9519 113.805 33.3017 113.631 28.0371C113.587 23.3232 112.021 19.1013 109.106 15.8314C106.482 12.887 102.823 10.8213 98.8069 10.0161C94.8542 9.22313 90.7595 9.6906 87.2743 11.3304C83.4243 13.144 80.4482 16.2915 78.6639 20.4449C76.0427 26.7815 76.5444 33.9258 79.9856 39.1072C80.3209 39.5844 80.7296 40.096 81.344 40.1155C82.7146 40.1596 84.0705 40.1547 85.5072 40.1498H86.1802C86.6183 40.1474 87.0148 39.9051 87.218 39.5159C87.4187 39.1292 87.3893 38.6642 87.1396 38.3068C83.7719 33.4681 83.1355 28.0885 85.3016 22.7456C86.961 18.5506 90.1256 16.174 94.4528 15.8754C99.3503 15.5377 102.96 17.6499 105.185 22.1533C107.388 26.5882 107.094 32.3643 104.453 36.5299C102.341 39.861 99.0835 41.655 95.2727 41.5742C92.3112 41.5473 89.3228 41.5571 86.4348 41.5645C84.8757 41.5694 83.3093 41.5718 81.7429 41.5718C81.4272 41.5718 81.131 41.6942 80.9083 41.9193C80.6856 42.1421 80.5656 42.4382 80.5681 42.7539C80.5754 43.9581 80.5681 44.9371 80.551 45.9308C80.5412 46.4179 80.5852 46.9686 80.9891 47.3797C81.3929 47.7909 81.9534 47.8448 82.4013 47.8448H82.4111C88.126 47.835 93.8434 47.835 99.5583 47.835C108.891 47.835 118.541 47.8325 128.035 47.7934C129.839 47.786 131.789 47.4948 133.679 46.949C136.442 46.1511 138.236 44.0683 138.728 41.0945C139.46 37.1761 137.326 33.7398 133.165 32.1293H133.16Z" fill="#1348B8"/>
<path d="M189.399 42.0196C188.961 41.5913 188.373 41.5546 187.97 41.5619C186.907 41.5864 185.818 41.5815 184.763 41.5766C184.751 41.5766 184.736 41.5766 184.724 41.5766C187.627 36.8872 187.708 31.838 184.944 26.9136C182.999 23.306 179.146 20.8487 174.643 20.3421C169.956 19.8134 165.472 21.4263 162.66 24.6399C159.023 28.6269 158.159 34.8851 160.604 39.5256C161.076 40.4018 161.752 40.8057 162.799 40.8399C164.143 40.8815 165.323 40.8889 166.715 40.7885C167.132 40.7592 167.501 40.5071 167.682 40.1301C167.866 39.7508 167.829 39.298 167.589 38.9505C166.503 37.3718 166.057 35.5802 166.187 33.3114C166.326 30.8443 167.646 28.6538 169.714 27.4521C171.659 26.3189 173.933 26.2455 175.947 27.244C178.601 28.5608 179.903 30.8688 179.925 34.3026C179.939 36.3169 179.137 38.2676 177.724 39.6553C176.792 40.5731 175.176 41.6549 172.768 41.5962C169.873 41.5277 166.931 41.5424 164.087 41.5595C162.604 41.5668 161.072 41.5766 159.542 41.5717C158.626 41.5962 158.005 41.4298 157.64 41.0602C157.19 40.605 157.014 39.7459 157.067 38.2798V38.248C157.06 34.474 157.065 30.6289 157.067 26.9087C157.075 21.5658 157.082 16.0394 157.048 10.623V10.5839C157.05 10.1237 157.043 10.0014 156.996 9.8594C156.879 9.49717 156.566 9.05906 155.748 9.04193H155.704C154.515 8.99543 153.308 9.00032 152.141 9.00522H151.394C150.755 9.01011 150.229 9.52898 150.222 10.1702C150.112 20.2613 150.116 30.3254 150.232 40.0885C150.307 44.8489 153.191 47.7297 157.956 47.7908C160.687 47.7982 163.47 47.8178 166.16 47.8398C169.43 47.8643 172.749 47.8912 176.082 47.8887C180.302 47.8887 184.546 47.8471 188.745 47.715C189.377 47.6954 189.888 47.1643 189.884 46.5328C189.881 45.9821 189.884 45.4486 189.891 44.9199C189.896 44.4402 189.901 43.9678 189.898 43.4906C189.898 43.0672 189.844 42.4553 189.396 42.0221L189.399 42.0196Z" fill="#1348B8"/>
<path d="M148.79 41.5131C147.911 41.4128 147.549 41.0603 147.368 40.1156C147.131 34.7506 147.175 29.2707 147.216 23.9669C147.243 20.5527 147.27 17.0209 147.224 13.5577C147.224 13.3252 147.224 13.0657 147.228 12.7892C147.236 11.8885 147.243 10.8654 147.189 10.1043C147.167 9.80077 147.001 9.09344 145.904 9.04449C144.69 8.9931 143.464 8.99799 142.277 9.00289H141.548C140.909 9.00778 140.383 9.5291 140.375 10.1679C140.307 16.8545 140.324 23.6488 140.341 30.2203C140.348 33.5171 140.358 36.8163 140.356 40.118C140.361 41.6648 140.845 43.1945 141.793 44.6655C143.163 46.7899 145.85 47.7591 148.217 47.7591C148.66 47.7591 149.093 47.7249 149.502 47.6588C150.072 47.5658 150.481 47.0763 150.479 46.4962C150.479 46.2759 150.476 46.0532 150.474 45.833C150.466 45.0742 150.462 44.291 150.491 43.5298C150.537 42.3232 149.967 41.6428 148.79 41.5107V41.5131Z" fill="#1348B8"/>
</svg>
