<?xml version="1.0" encoding="UTF-8"?>
<svg id="_레이어_1" data-name="레이어_1" xmlns="http://www.w3.org/2000/svg" version="1.1" viewBox="0 0 266 56">
  <!-- Generator: Adobe Illustrator 29.2.1, SVG Export Plug-In . SVG Version: 2.1.0 Build 116)  -->
  <defs>
    <style>
      .st0 {
        fill: #002ea2;
      }

      .st1 {
        fill: #666;
      }

      .st2 {
        fill: #6bd340;
      }

      .st3 {
        fill: #00a2b3;
      }
    </style>
  </defs>
  <g>
    <g>
      <path class="st1" d="M118.5,38.1c0-1.5,1.1-2.6,2.6-2.6s1.7.4,2.2,1.2l-.6.4c-.4-.6-.9-.8-1.6-.8-1,0-1.8.8-1.8,1.9s.8,1.9,1.8,1.9,1.5-.6,1.6-1.3h-1.7v-.7h2.6c0,.1,0,.2,0,.3,0,1.3-.9,2.4-2.5,2.4s-2.6-1.1-2.6-2.6Z"/>
      <path class="st1" d="M124,37h.8l1.1,2.8,1.1-2.8h.8l-1.7,4c-.3.7-.6,1.1-1.5,1.1s-.5,0-.6-.1v-.6c.2,0,.4,0,.6,0,.5,0,.7-.2.8-.7v-.2c0,0-1.5-3.6-1.5-3.6Z"/>
      <path class="st1" d="M130,37c1,0,1.7.8,1.7,1.7s0,.2,0,.3h-2.8c0,.5.5,1,1.1,1s.8-.2,1.1-.6l.5.4c-.3.6-1,.9-1.6.9-1.1,0-1.9-.8-1.9-1.9s.8-1.9,1.9-1.9ZM131,38.5c0-.5-.5-.9-1-.9s-1,.4-1.1.9h2Z"/>
      <path class="st1" d="M132.3,38.8c0-1.1.8-1.9,1.9-1.9s1.9.8,1.9,1.9-.8,1.9-1.9,1.9-1.9-.8-1.9-1.9ZM134.2,40c.7,0,1.2-.5,1.2-1.2s-.5-1.2-1.2-1.2-1.2.5-1.2,1.2.5,1.2,1.2,1.2Z"/>
      <path class="st1" d="M137,40.6v-3.6h.7v.5c.1-.2.5-.5,1.1-.5,1,0,1.5.6,1.5,1.5v2.2h-.7v-2c0-.6-.3-.9-.9-.9s-1,.3-1,.9v2h-.7Z"/>
      <path class="st1" d="M141.2,38.8c0-1.1.8-1.9,1.8-1.9s1,.2,1.3.6v-.5h.7v3.3c0,1.1-.8,1.9-2,1.9s-1.3-.3-1.7-.8l.5-.5c.3.4.7.6,1.2.6.7,0,1.2-.4,1.2-1.1v-.3c-.3.3-.7.6-1.3.6-1,0-1.8-.8-1.8-1.9ZM141.9,38.8c0,.7.5,1.2,1.2,1.2s1.2-.6,1.2-1.2-.5-1.2-1.2-1.2-1.2.5-1.2,1.2Z"/>
      <path class="st1" d="M145.9,38.8c0-1.1.8-1.9,1.8-1.9s1,.2,1.3.6v-.5h.7v3.3c0,1.1-.8,1.9-2,1.9s-1.3-.3-1.7-.8l.5-.5c.3.4.7.6,1.2.6.7,0,1.2-.4,1.2-1.1v-.3c-.3.3-.7.6-1.3.6-1,0-1.8-.8-1.8-1.9ZM146.6,38.8c0,.7.5,1.2,1.2,1.2s1.2-.6,1.2-1.2-.5-1.2-1.2-1.2-1.2.5-1.2,1.2Z"/>
      <path class="st1" d="M151.2,35.4c.3,0,.5.2.5.5s-.2.5-.5.5-.5-.2-.5-.5.2-.5.5-.5ZM150.8,40.6v-3.6h.7v3.6h-.7Z"/>
      <path class="st1" d="M155.1,38.8h-2.5v-.7h2.5v.7Z"/>
      <path class="st1" d="M158.2,35.6c1.5,0,2.6,1.1,2.6,2.5s-1.1,2.5-2.6,2.5h-2v-5.1h2ZM158.2,39.9c1.1,0,1.8-.8,1.8-1.8s-.7-1.8-1.8-1.8h-1.2v3.7h1.2Z"/>
      <path class="st1" d="M161.5,38.8c0-1.1.8-1.9,1.9-1.9s1.9.8,1.9,1.9-.8,1.9-1.9,1.9-1.9-.8-1.9-1.9ZM163.4,40c.7,0,1.2-.5,1.2-1.2s-.5-1.2-1.2-1.2-1.2.5-1.2,1.2.5,1.2,1.2,1.2Z"/>
      <path class="st1" d="M168.3,39.1c.2.5.7.9,1.4.9s1-.3,1-.7-.4-.6-1.2-.9c-1-.3-1.7-.6-1.7-1.5,0-.9.9-1.4,1.7-1.4s1.5.5,1.8,1l-.6.4c-.2-.4-.6-.8-1.2-.8s-.9.2-.9.7.4.6,1.1.8c.9.3,1.7.6,1.7,1.6s-.9,1.4-1.8,1.4-1.7-.5-2-1.2l.6-.4Z"/>
      <path class="st1" d="M172.2,38.8c0-1.1.8-1.9,1.9-1.9s1.9.8,1.9,1.9-.8,1.9-1.9,1.9-1.9-.8-1.9-1.9ZM174.1,40c.7,0,1.2-.5,1.2-1.2s-.5-1.2-1.2-1.2-1.2.5-1.2,1.2.5,1.2,1.2,1.2Z"/>
      <path class="st1" d="M176.6,38.8c0-1.1.8-1.9,1.9-1.9s1.3.4,1.6,1l-.6.4c-.2-.4-.6-.7-1.1-.7-.7,0-1.2.5-1.2,1.2s.5,1.2,1.2,1.2.9-.2,1.1-.7l.6.4c-.3.6-.9,1-1.7,1-1.1,0-1.9-.8-1.9-1.9Z"/>
      <path class="st1" d="M181.3,35.4c.3,0,.5.2.5.5s-.2.5-.5.5-.5-.2-.5-.5.2-.5.5-.5ZM180.9,40.6v-3.6h.7v3.6h-.7Z"/>
      <path class="st1" d="M184.2,38.5c.4,0,.7,0,.9.2v-.2c0-.4-.4-.8-.9-.8s-.8.3-1,.5l-.5-.5c.3-.4.9-.7,1.5-.7,1,0,1.6.5,1.6,1.4v2.2h-.7v-.5c-.2.3-.6.5-1.1.5-.8,0-1.4-.4-1.4-1.1s.6-1.1,1.6-1.1ZM184.1,40.1c.6,0,1-.4,1-.9-.2,0-.5-.2-.9-.2s-.9.2-.9.5.3.5.7.5Z"/>
      <path class="st1" d="M187.6,40.6h-.7v-5.3h.7v5.3Z"/>
      <path class="st1" d="M191.4,40.6h-.8v-5.1h.8v5.1Z"/>
      <path class="st1" d="M192.6,37h.7v.5c.1-.2.5-.5,1.1-.5s1.1.3,1.3.7c.2-.4.7-.7,1.3-.7,1,0,1.5.6,1.5,1.5v2.2h-.7v-2c0-.6-.3-.9-.8-.9s-1,.3-1,.9v2.1h-.7v-2c0-.6-.3-.9-.8-.9s-1,.3-1,.9v2h-.7v-3.6Z"/>
      <path class="st1" d="M199.6,37h.7v.5c.3-.3.7-.6,1.3-.6,1,0,1.8.8,1.8,1.9s-.8,1.9-1.8,1.9-1-.2-1.3-.6v2h-.7v-5.1ZM201.5,40c.7,0,1.2-.5,1.2-1.2s-.5-1.2-1.2-1.2-1.2.6-1.2,1.2.5,1.2,1.2,1.2Z"/>
      <path class="st1" d="M205.6,38.5c.4,0,.7,0,.9.2v-.2c0-.4-.4-.8-.9-.8s-.8.3-1,.5l-.5-.5c.3-.4.9-.7,1.5-.7,1,0,1.6.5,1.6,1.4v2.2h-.7v-.5c-.2.3-.6.5-1.1.5-.8,0-1.4-.4-1.4-1.1s.6-1.1,1.6-1.1ZM205.5,40.1c.6,0,1-.4,1-.9-.2,0-.5-.2-.9-.2s-.9.2-.9.5.3.5.7.5Z"/>
      <path class="st1" d="M208.1,38.8c0-1.1.8-1.9,1.9-1.9s1.3.4,1.6,1l-.6.4c-.2-.4-.6-.7-1.1-.7-.7,0-1.2.5-1.2,1.2s.5,1.2,1.2,1.2.9-.2,1.1-.7l.6.4c-.3.6-.9,1-1.7,1-1.1,0-1.9-.8-1.9-1.9Z"/>
      <path class="st1" d="M212,37.7v-.6h.7v-1.2h.7v1.2h1.1v.6h-1.1v1.8c0,.4.2.6.6.6s.4,0,.6-.1v.6c0,0-.4.2-.7.2-.8,0-1.2-.4-1.2-1.2v-1.9h-.6Z"/>
      <path class="st1" d="M219.5,35.5c.9,0,1.7.5,2.2,1.2l-.6.4c-.4-.6-1-.9-1.6-.9-1,0-1.8.8-1.8,1.9s.8,1.9,1.8,1.9,1.2-.3,1.6-.9l.6.4c-.5.8-1.3,1.2-2.2,1.2-1.5,0-2.6-1.1-2.6-2.6s1.1-2.6,2.6-2.6Z"/>
      <path class="st1" d="M222.5,40.6v-3.6h.7v.5c.2-.4.5-.6.9-.6s.5,0,.5,0v.7c-.1,0-.3,0-.5,0-.4,0-.9.2-.9,1v2h-.7Z"/>
      <path class="st1" d="M226.8,37c1,0,1.7.8,1.7,1.7s0,.2,0,.3h-2.8c0,.5.5,1,1.1,1s.8-.2,1.1-.6l.5.4c-.3.6-1,.9-1.6.9-1.1,0-1.9-.8-1.9-1.9s.8-1.9,1.9-1.9ZM227.8,38.5c0-.5-.5-.9-1-.9s-1,.4-1.1.9h2Z"/>
      <path class="st1" d="M230.8,38.5c.4,0,.7,0,.9.2v-.2c0-.4-.4-.8-.9-.8s-.8.3-1,.5l-.5-.5c.3-.4.9-.7,1.5-.7,1,0,1.6.5,1.6,1.4v2.2h-.7v-.5c-.2.3-.6.5-1.1.5-.8,0-1.4-.4-1.4-1.1s.6-1.1,1.6-1.1ZM230.7,40.1c.6,0,1-.4,1-.9-.2,0-.5-.2-.9-.2s-.9.2-.9.5.3.5.7.5Z"/>
      <path class="st1" d="M233.1,37.7v-.6h.7v-1.2h.7v1.2h1.1v.6h-1.1v1.8c0,.4.2.6.6.6s.4,0,.6-.1v.6c0,0-.4.2-.7.2-.8,0-1.2-.4-1.2-1.2v-1.9h-.6Z"/>
      <path class="st1" d="M236,38.8c0-1.1.8-1.9,1.9-1.9s1.9.8,1.9,1.9-.8,1.9-1.9,1.9-1.9-.8-1.9-1.9ZM238,40c.7,0,1.2-.5,1.2-1.2s-.5-1.2-1.2-1.2-1.2.5-1.2,1.2.5,1.2,1.2,1.2Z"/>
      <path class="st1" d="M240.7,40.6v-3.6h.7v.5c.2-.4.5-.6.9-.6s.5,0,.5,0v.7c-.1,0-.3,0-.5,0-.4,0-.9.2-.9,1v2h-.7Z"/>
      <path class="st1" d="M243.8,39.4c.2.4.5.6,1,.6s.7-.2.7-.4-.2-.3-.7-.5c-.8-.2-1.3-.4-1.3-1.1s.6-1.1,1.3-1.1,1.2.3,1.4.7l-.5.4c-.2-.3-.5-.5-.9-.5s-.6.1-.6.4.3.3.8.5c.8.2,1.3.4,1.3,1.1s-.7,1.1-1.4,1.1-1.3-.3-1.6-.8l.5-.4Z"/>
    </g>
    <g>
      <path class="st1" d="M126.8,17c0,.9-.3,1.8-.7,2.6-.4.8-.9,1.5-1.6,2.2-.7.7-1.4,1.2-2.3,1.7-.9.5-1.9.9-2.9,1.2l-.7-1.3c.9-.3,1.7-.6,2.4-.9.7-.4,1.3-.8,1.8-1.2.5-.4.9-.9,1.2-1.3.3-.5.6-1,.7-1.4h-5.4v-1.5h7.5ZM130.9,27.8c0,.5-.1,1-.3,1.4-.2.4-.5.8-.9,1.1-.4.3-.9.5-1.4.7-.5.2-1.1.2-1.8.2s-1.3,0-1.8-.2-1-.4-1.4-.7c-.4-.3-.7-.7-.9-1.1-.2-.4-.3-.9-.3-1.4s.1-1,.3-1.4.5-.8.9-1.1c.4-.3.9-.5,1.4-.7s1.1-.2,1.8-.2,1.3,0,1.8.2c.5.2,1,.4,1.4.7.4.3.7.7.9,1.1s.3.9.3,1.4ZM129.1,27.8c0-.3,0-.6-.2-.8-.1-.2-.3-.5-.6-.6s-.5-.3-.9-.4c-.3,0-.7-.1-1.1-.1s-.7,0-1.1.1c-.3,0-.6.2-.9.4-.2.2-.4.4-.6.6-.1.2-.2.5-.2.8s0,.6.2.8c.1.2.3.4.6.6.2.2.5.3.9.4.3,0,.7.1,1.1.1s.7,0,1.1-.1c.3,0,.6-.2.9-.4s.4-.4.6-.6c.1-.2.2-.5.2-.8ZM130.8,24.5h-1.7v-1.5h-2.6v-1.5h2.6v-1.3h-2.4v-1.5h2.4v-2.2h1.7v8Z"/>
      <path class="st1" d="M141.2,17.3c0,1.2-.3,2.4-.7,3.4-.4,1.1-.9,2.1-1.6,3-.7.9-1.4,1.7-2.3,2.5-.9.7-1.8,1.4-2.8,1.9l-1-1.2c1.8-1.1,3.3-2.3,4.3-3.6,1.1-1.3,1.7-2.8,2-4.5h-5.5v-1.5h7.5ZM145.2,30.5h-1.7v-14.1h1.7v14.1Z"/>
      <path class="st1" d="M161.1,28.7h-13.9v-1.5h6.2v-3h-4.4v-7h10.3v1.5h-8.6v4.1h8.8v1.5h-4.4v3h5.9v1.5Z"/>
      <path class="st1" d="M171,26.6l-1.1,1.1c-.7-.6-1.4-1.2-2-1.8-.6-.6-1.2-1.2-1.7-1.9-.5.7-1.1,1.4-1.7,2-.6.6-1.3,1.2-2,1.8l-1.1-1c.7-.6,1.4-1.3,2-1.9.6-.7,1.1-1.4,1.6-2.1.1-.2.2-.5.3-.8,0-.3,0-.6,0-.9v-4.1h1.8v4.1c0,.3,0,.6.1.9,0,.3.2.6.3.8.5.7,1,1.4,1.6,2,.6.6,1.2,1.2,1.9,1.9ZM175.7,22.8h-2.1v7.7h-1.7v-14.1h1.7v4.9h2.1v1.5Z"/>
      <path class="st1" d="M186,27.7c-.8.1-1.6.2-2.4.2-.9,0-1.7,0-2.5,0h-4.8v-1.5h3.9v-1.7c-.4,0-.8-.2-1.1-.4s-.6-.4-.9-.7c-.2-.3-.4-.6-.6-1-.1-.4-.2-.8-.2-1.2s0-.8.2-1.1c.1-.3.3-.6.6-.9h-1.6v-1.5h3.6v-1.6h1.8v1.6h3.5v1.5h-1.5c.3.3.5.6.6.9s.2.7.2,1.1,0,.8-.2,1.2c-.1.4-.3.7-.6,1s-.5.5-.9.7-.7.4-1.1.4v1.7c.7,0,1.3,0,2-.1.7,0,1.3-.1,2-.2v1.5ZM183.1,21.5c0-.3,0-.6-.2-.8-.1-.2-.3-.5-.4-.6-.2-.2-.4-.3-.6-.4-.2,0-.5-.1-.7-.1h0c-.2,0-.5,0-.7.1-.2,0-.4.2-.6.4-.2.2-.3.4-.4.6-.1.2-.2.5-.2.8s0,.6.2.8c.1.2.3.5.4.6s.4.3.6.4c.2,0,.5.1.7.1s.5,0,.7-.1c.2,0,.5-.2.6-.4s.3-.4.4-.6c.1-.2.2-.5.2-.8ZM188.4,30.5h-1.7v-14.1h1.7v14.1Z"/>
      <path class="st1" d="M199.7,23.1l-1,1.2c-.6-.4-1.2-.8-1.8-1.2-.6-.4-1.2-.9-1.8-1.5-.6.6-1.2,1.1-1.8,1.6-.6.5-1.2.9-1.9,1.3l-1-1.1c.6-.4,1.2-.8,1.7-1.3.5-.4,1-.9,1.5-1.4.2-.2.3-.5.4-.7,0-.2.1-.5.1-.8v-.7h-3.2v-1.5h8.1v1.5h-3.2v.7c0,.5.2,1,.6,1.4.4.4.9.9,1.4,1.3s1.1.8,1.7,1.2ZM202.8,30.5h-1.7v-3.9h-8.3v-1.5h10v5.4ZM202.8,24.6h-1.7v-3.6h-2.6v-1.6h2.6v-3h1.7v8.1Z"/>
      <path class="st1" d="M213.1,17c0,.9-.3,1.8-.7,2.6-.4.8-.9,1.5-1.6,2.2-.7.7-1.4,1.2-2.3,1.7-.9.5-1.9.9-2.9,1.2l-.7-1.3c.9-.3,1.7-.6,2.4-.9.7-.4,1.3-.8,1.8-1.2.5-.4.9-.9,1.2-1.3.3-.5.6-1,.7-1.4h-5.4v-1.5h7.5ZM217.2,27.8c0,.5-.1,1-.3,1.4-.2.4-.5.8-.9,1.1-.4.3-.9.5-1.4.7-.5.2-1.1.2-1.8.2s-1.3,0-1.8-.2-1-.4-1.4-.7c-.4-.3-.7-.7-.9-1.1-.2-.4-.3-.9-.3-1.4s.1-1,.3-1.4.5-.8.9-1.1c.4-.3.9-.5,1.4-.7s1.1-.2,1.8-.2,1.3,0,1.8.2c.5.2,1,.4,1.4.7.4.3.7.7.9,1.1.2.4.3.9.3,1.4ZM215.4,27.8c0-.3,0-.6-.2-.8s-.3-.5-.6-.6c-.2-.2-.5-.3-.9-.4-.3,0-.7-.1-1.1-.1s-.7,0-1.1.1c-.3,0-.6.2-.9.4s-.4.4-.6.6c-.1.2-.2.5-.2.8s0,.6.2.8c.1.2.3.4.6.6s.5.3.9.4c.3,0,.7.1,1.1.1s.7,0,1.1-.1c.3,0,.6-.2.9-.4.2-.2.4-.4.6-.6.1-.2.2-.5.2-.8ZM217.1,24.5h-1.7v-1.5h-2.6v-1.5h2.6v-1.3h-2.4v-1.5h2.4v-2.2h1.7v8Z"/>
      <path class="st1" d="M226.9,26.8l-1.2.9c-.5-.5-1-1-1.4-1.5-.4-.5-.8-1.1-1.2-1.7-.2.3-.4.6-.6.9-.2.3-.4.6-.6.8s-.4.5-.7.8c-.2.3-.5.5-.7.8l-1.2-.9c.5-.6,1-1.2,1.4-1.7.4-.6.8-1.2,1.2-2,.1-.2.2-.5.3-.8,0-.3,0-.6,0-.9v-2.9h-2.4v-1.5h6.5v1.5h-2.3v2.9c0,.3,0,.5,0,.8,0,.3.1.5.3.7.3.6.7,1.2,1.1,1.9.4.6.9,1.2,1.4,1.8ZM229.1,29.9h-1.7v-7.6h-2.1v-1.6h2.1v-4.1h1.7v13.3ZM231.8,30.5h-1.7v-14.1h1.7v14.1Z"/>
      <path class="st1" d="M243.6,23.6c-.7,0-1.4.2-2.1.2-.8,0-1.5,0-2.2,0v2.1h-1.8v-2.1h-3.6v-1.4h4.8c.8,0,1.6,0,2.5,0,.9,0,1.7-.1,2.4-.2v1.4ZM242.3,19.1c0,.4,0,.8-.3,1.2s-.4.7-.8.9c-.3.3-.7.5-1.2.6-.4.1-.9.2-1.5.2s-1,0-1.5-.2c-.5-.1-.8-.3-1.2-.6-.3-.3-.6-.6-.8-.9-.2-.4-.3-.7-.3-1.2s0-.8.3-1.2c.2-.4.4-.7.8-.9.3-.3.7-.5,1.2-.6.5-.1.9-.2,1.5-.2s1,0,1.5.2c.4.1.8.3,1.2.6.3.3.6.6.8.9s.3.7.3,1.2ZM246.2,30.3h-10.4v-3.8h1.7v2.3h8.6v1.5ZM240.5,19.1c0-.2,0-.4-.2-.6-.1-.2-.2-.3-.4-.4-.2-.1-.4-.2-.6-.3s-.5,0-.7,0-.5,0-.7,0c-.2,0-.4.1-.6.3-.2.1-.3.3-.4.4-.1.2-.2.4-.2.6s0,.4.2.6c.1.2.2.3.4.4.2.1.4.2.6.3.2,0,.5,0,.7,0s.5,0,.7,0c.2,0,.4-.1.6-.3.2-.1.3-.3.4-.4.1-.2.2-.4.2-.6ZM245.9,27.2h-1.7v-1.2h-3.1v-1.5h3.1v-8.1h1.7v10.8Z"/>
    </g>
  </g>
  <g>
    <circle class="st2" cx="76.4" cy="18" r="4.5" transform="translate(-1.4 7.6) rotate(-5.7)"/>
    <g>
      <path class="st3" d="M103.9,33c-2.2,3.1-4.8,4.6-8,4.6-4.8,0-8.3-3.6-8.3-8.8s0-.2,0-.2c-1.5,1.4-3.2,2.4-5.1,3.2,1.3,6.3,6.7,10.7,13.4,10.7s9.4-2.3,11.9-6.6l-3.9-2.8Z"/>
      <path class="st0" d="M87.2,25.2c0,0,.1-.1.2-.2.6-.8,1.2-1.6,1.9-2.3,1.6-1.6,3.8-2.6,6.1-2.7.1,0,.3,0,.4,0,3.4,0,5.9,1.8,7.7,4.7l4.2-3c-2.6-4.1-7-6.6-11.9-6.6s-4.8.6-6.9,1.8c-1.1.6-2,1.3-2.9,2.2-.9.9-1.6,2-2.4,3-.9,1.1-2,2-3.2,2.6-1.5.7-2.9.9-4.1.9-.2,0-.3,0-.5,0,0,0,0,0-.1,0-.7,0-1.3-.2-1.9-.4-2.4-.7-4.5-2.4-5.7-4.8-1.7-2.9-4.8-5.3-9.6-5.3s-9.4,2.6-9.4,7.6,4.2,6.7,9.3,8.3c2.3.7,4,1.4,4.7,2.4.2.3.3.8.3,1.3,0,1.7-1.8,2.8-3.9,2.8s-4.7-1.3-5.9-3.3c0,0,0-.1-.1-.2,0,0,0-.1-.1-.2h0c-1.6-2.6-4-4.6-6.8-5.7,0,0-.1,0-.2,0-.1,0-.2,0-.4-.1-.6-.2-1.9-.5-1.9-.5-.8-.1-1.7-.2-2.8-.2h-7.9v4.7h7.6v.5c-.7,2.7-3.2,5.2-7.5,5.2s-8.3-3.6-8.3-8.8,3.4-8.8,8.2-8.8,5.4,1.2,7.5,4.3l4.2-3c-2.8-4-7-6.2-11.6-6.2-7.8,0-13.6,5.9-13.6,13.7s6,13.7,13.8,13.7,11.2-4.1,12.5-9.4c1.6.9,2.9,2.3,3.7,4,1.7,2.9,4.8,5.3,9.6,5.3s5.4-.9,7.2-2.6c1.4-1.2,2.2-2.9,2.2-5,0-5.2-4.1-6.6-9.1-8.3-3.3-1.2-5.3-1.5-5.3-3.6s1.8-2.8,3.9-2.8,4.7,1.3,5.9,3.3c0,0,0,.1.1.2,0,0,0,.1.1.2h0c1.6,2.6,4,4.6,6.8,5.7,0,0,.1,0,.2,0,.1,0,.2,0,.4.1.6.2,1.9.5,1.9.5,1.4.2,3.2.4,5.3,0,0,0,.4,0,.9-.2.4-.1.9-.2,1.3-.4.2,0,.4-.1.4-.1.9-.4,1.7-.8,2.5-1.3,1.1-.8,2.1-1.7,3-2.7Z"/>
      <path class="st3" d="M73.8,32.5h0v10h5.3v-10h0c-2.1.3-3.9.2-5.3,0Z"/>
    </g>
  </g>
</svg>